<?xml version="1.0" encoding="utf-8"?>
<!-- Generator: Adobe Illustrator 22.0.0, SVG Export Plug-In . SVG Version: 6.00 Build 0)  -->
<svg version="1.1" id="Layer_1" xmlns="http://www.w3.org/2000/svg" xmlns:xlink="http://www.w3.org/1999/xlink" x="0px" y="0px"
	 viewBox="0 0 37.9 41" style="enable-background:new 0 0 37.9 41;" xml:space="preserve">
<style type="text/css">
	.st0{fill:#FF0000;}
</style>
<g>
	<g>
		<path class="st0" d="M3.7,39.8c-0.1,0-0.2,0-0.3-0.1l-0.1,0c-1.2-0.5-2.2-1.3-2.2-6.7c0-5.8,2.4-13.7,3.6-16.6
			c0.7-1.7,0-4.3-2.2-7.5c-0.3-0.5-0.6-0.8-0.8-1C1.3,7.5,1,7.1,0.8,6.5C0.6,6.1,0.6,5.6,0.9,5.2C1.2,4.7,1.7,4.3,2,4.2
			c0.4-0.1,0.8,0.2,1.5,0.5c0.7,0.4,1.6,0.8,2.7,1.1c1.5,0.4,2.2,0.4,3.3-0.6c0.8-0.7,1-1.5,1.2-2.2c0.1-0.4,0.2-0.7,0.3-1
			c0.2-0.4,0.9-0.9,1.6-0.9c0.4,0,1,0.1,1.4,0.9c0.9,1.5,2.9,3.2,3.8,3.2H20c0.9,0,2.9-1.7,3.8-3.2c0.4-0.7,1-0.9,1.4-0.9
			c0.7,0,1.3,0.5,1.6,0.9c0.2,0.3,0.3,0.7,0.3,1c0.2,0.7,0.4,1.5,1.2,2.2c1.2,1,1.8,0.9,3.3,0.6c1.1-0.3,2-0.7,2.7-1.1
			c0.7-0.4,1.1-0.6,1.5-0.5c0.3,0.1,0.8,0.4,1.1,0.9c0.3,0.4,0.3,0.9,0.1,1.4l0,0c-0.2,0.6-0.6,0.9-0.9,1.3c-0.2,0.3-0.5,0.6-0.8,1
			c-2.2,3.3-2.9,5.8-2.2,7.5c1.2,2.9,3.6,10.9,3.6,16.6c0,5.4-0.9,6.2-2.2,6.7l-0.1,0c-0.3,0.1-0.6,0.1-0.8-0.1
			c-1.1-0.8-1.8-4.2-1.7-8.7C32,19.3,24.3,15.7,24,15.6c-1.6-0.7-4.7-0.5-4.7-0.5l-0.7,0c-0.1,0-3.1-0.2-4.7,0.5
			c-0.3,0.1-8,3.7-7.9,15.4c0.1,4.5-0.6,7.9-1.7,8.7C4.1,39.8,3.9,39.8,3.7,39.8z M2.1,5C2.1,5,2.1,5,2.1,5C2.1,5,1.7,5.2,1.5,5.6
			C1.4,5.8,1.4,6,1.5,6.3C1.7,6.7,1.9,7,2.2,7.3c0.3,0.3,0.6,0.6,0.9,1.1c2.3,3.5,3.1,6.2,2.3,8.2C4.3,19.5,1.9,27.3,1.9,33
			c0,5.3,0.9,5.7,1.7,6l0.1,0c0,0,0,0,0.1,0c0.6-0.4,1.5-2.9,1.4-8.1c-0.2-12.2,8-16,8.3-16.1c1.8-0.8,4.9-0.6,5.1-0.6l0.6,0
			c0.1,0,3.3-0.2,5,0.6c0.3,0.2,8.5,3.9,8.3,16.1c-0.1,5.1,0.8,7.6,1.4,8.1c0.1,0.1,0.1,0,0.1,0l0.1,0c0.8-0.3,1.7-0.7,1.7-6
			c0-5.7-2.4-13.5-3.5-16.4c-0.8-2,0-4.8,2.3-8.2c0.3-0.5,0.6-0.8,0.9-1.1C36,7,36.2,6.7,36.4,6.3l0,0c0.1-0.2,0.1-0.4,0-0.7
			C36.2,5.2,35.8,5,35.7,5c-0.1,0-0.6,0.2-1.1,0.4C34,5.8,33,6.3,31.8,6.6c-1.5,0.4-2.5,0.5-4-0.7c-1-0.8-1.2-1.8-1.4-2.5
			c-0.1-0.3-0.2-0.6-0.3-0.8c-0.1-0.2-0.5-0.5-0.9-0.5c0,0,0,0,0,0c-0.3,0-0.6,0.2-0.8,0.5C23.6,3.9,21.4,6,20,6h-2.2
			c-1.3,0-3.6-2.1-4.5-3.6c-0.2-0.4-0.5-0.5-0.8-0.5c-0.4,0-0.8,0.3-0.9,0.5c-0.1,0.2-0.2,0.5-0.3,0.8C11.2,4,11,5,10,5.8
			C8.6,7.1,7.5,6.9,6,6.6C4.9,6.3,3.9,5.8,3.2,5.4C2.8,5.2,2.3,5,2.1,5z M27.9,14.5c-1.6,0-3.5-1.5-3.6-1.6
			c-0.5-0.4-1.4-1.4-1.5-2.5c0-0.5,0.1-1,0.4-1.3c0.9-1,2.2-2,4.4-0.6c1.2,0.7,2.3,1.5,2.6,2.7c0.2,0.7,0,1.5-0.5,2.3l0,0
			c-0.3,0.5-0.8,0.9-1.4,1C28.2,14.5,28.1,14.5,27.9,14.5z M25.6,8.6c-0.7,0-1.3,0.4-1.9,1c-0.2,0.2-0.3,0.5-0.2,0.8
			c0.1,0.8,0.8,1.6,1.2,2c0.6,0.5,2.3,1.6,3.5,1.4c0.4-0.1,0.7-0.3,0.9-0.6l0,0c0.4-0.7,0.5-1.2,0.4-1.8c-0.2-0.9-1.2-1.6-2.3-2.2
			C26.6,8.8,26.1,8.6,25.6,8.6z M9.9,14.5c-0.1,0-0.3,0-0.4,0c-0.6-0.1-1-0.4-1.4-1c-0.5-0.8-0.7-1.6-0.5-2.3c0.3-1.2,1.4-2,2.6-2.7
			c2.2-1.3,3.5-0.4,4.4,0.6c0.3,0.4,0.5,0.8,0.4,1.3c-0.1,1.1-1,2.1-1.5,2.5C13.4,13.1,11.6,14.5,9.9,14.5z M12.2,8.6
			c-0.5,0-1,0.2-1.6,0.5c-1,0.6-2,1.3-2.3,2.2c-0.1,0.5,0,1.1,0.4,1.8c0.2,0.3,0.5,0.5,0.9,0.6c1.2,0.2,2.9-0.9,3.5-1.4l0,0
			c0.4-0.3,1.1-1.2,1.2-2c0-0.3,0-0.6-0.2-0.8C13.5,9,13,8.6,12.2,8.6z"/>
	</g>
</g>
</svg>
