<svg id="Layer_1" data-name="Layer 1" xmlns="http://www.w3.org/2000/svg" viewBox="0 0 1006.33 121.87"><defs><style>.cls-1{fill:#e13742;}</style></defs><title>petrichor-2</title><path class="cls-1" d="M0,2.5H52.59c31.05,0,52.25,13.86,52.25,41.57v.34c0,28.21-21.53,43.24-53.09,43.24H39.07v31.72H0ZM49.58,59.77c10,0,16.7-4.51,16.7-12.86v-.33c0-8.52-6.18-12.86-16.53-12.86H39.07V59.77Z"/><path class="cls-1" d="M113.19,2.5h99.66V34.56H151.58V46.41h57.1V74.63h-57.1V87.31h62.11v32.06H113.19Z"/><path class="cls-1" d="M254.09,35.56h-34.4V2.5H327.54V35.56H293.15v83.81H254.09Z"/><path class="cls-1" d="M336.39,2.5h57.09c20.7,0,33.89,5.18,42.07,13.36,7,7,10.69,15.69,10.69,27.71v.34c0,17-8.85,28.88-23,35.72l27.21,39.74H405.84L383.8,86h-8.35v33.39H336.39Zm55.92,55.6c9.35,0,15-4.18,15-11.35v-.34c0-7.51-5.84-11.18-14.86-11.18h-17V58.1Z"/><path class="cls-1" d="M456.08,2.5h39.07V119.37H456.08Z"/><path class="cls-1" d="M506.17,61.27v-.33C506.17,26,533.38,0,568.27,0,594,0,611.34,12.52,621.19,30.38L589,49.25c-4.34-8.35-10.52-14.19-21.2-14.19-13.19,0-21.87,11.52-21.87,25.54v.34c0,15.19,9,25.87,21.87,25.87,11,0,17.19-6,22-14.69L622,90.32c-9.85,17.36-26.21,31.55-55.26,31.55C534.38,121.87,506.17,97.5,506.17,61.27Z"/><path class="cls-1" d="M629.54,2.5H668.6V43.74h35.73V2.5h39.06V119.37H704.33V77.46H668.6v41.91H629.54Z"/><path class="cls-1" d="M754.07,61.27v-.33C754.07,27.05,782,0,818,0s63.61,26.71,63.61,60.6v.34c0,33.89-27.88,60.93-63.94,60.93S754.07,95.16,754.07,61.27Zm88.15,0v-.33c0-13.86-9.51-26.38-24.54-26.38-14.86,0-24.21,12.35-24.21,26v.34c0,13.85,9.52,26.37,24.54,26.37C832.87,87.31,842.22,75,842.22,61.27Z"/><path class="cls-1" d="M892.3,2.5h57.1c20.7,0,33.89,5.18,42.07,13.36,7,7,10.68,15.69,10.68,27.71v.34c0,17-8.85,28.88-23,35.72l27.22,39.74H961.75L939.71,86h-8.34v33.39H892.3Zm55.93,55.6c9.35,0,15-4.18,15-11.35v-.34c0-7.51-5.84-11.18-14.85-11.18h-17V58.1Z"/></svg>